{
    "asset" : {
        "generator" : "Khronos glTF Blender I/O v1.7.33",
        "version" : "2.0"
    },
    "scene" : 0,
    "scenes" : [
        {
            "name" : "Scene",
            "nodes" : [
                0,
                1
            ]
        }
    ],
    "nodes" : [
        {
            "mesh" : 0,
            "name" : "pared",
            "scale" : [
                87.05458068847656,
                40.933692932128906,
                61.60976791381836
            ],
            "translation" : [
                0.6727672219276428,
                -5.639777183532715,
                -0.43944767117500305
            ]
        },
        {
            "mesh" : 1,
            "name" : "suelo",
            "scale" : [
                87.05458068847656,
                40.933692932128906,
                61.60976791381836
            ],
            "translation" : [
                0.4420276880264282,
                -5.551944255828857,
                0.1496409773826599
            ]
        }
    ],
    "materials" : [
        {
            "doubleSided" : true,
            "name" : "Material.003",
            "normalTexture" : {
                "index" : 0
            },
            "pbrMetallicRoughness" : {
                "baseColorTexture" : {
                    "index" : 1
                },
                "metallicRoughnessTexture" : {
                    "index" : 2
                }
            }
        },
        {
            "doubleSided" : true,
            "name" : "suelo",
            "normalTexture" : {
                "index" : 3
            },
            "pbrMetallicRoughness" : {
                "baseColorTexture" : {
                    "index" : 4
                },
                "metallicRoughnessTexture" : {
                    "index" : 5
                }
            }
        }
    ],
    "meshes" : [
        {
            "name" : "Plane",
            "primitives" : [
                {
                    "attributes" : {
                        "POSITION" : 0,
                        "NORMAL" : 1,
                        "TEXCOORD_0" : 2
                    },
                    "indices" : 3,
                    "material" : 0
                }
            ]
        },
        {
            "name" : "Plane.008",
            "primitives" : [
                {
                    "attributes" : {
                        "POSITION" : 4,
                        "NORMAL" : 5,
                        "TEXCOORD_0" : 6
                    },
                    "indices" : 7,
                    "material" : 1
                }
            ]
        }
    ],
    "textures" : [
        {
            "sampler" : 0,
            "source" : 0
        },
        {
            "sampler" : 0,
            "source" : 1
        },
        {
            "sampler" : 0,
            "source" : 2
        },
        {
            "sampler" : 0,
            "source" : 3
        },
        {
            "sampler" : 0,
            "source" : 4
        },
        {
            "sampler" : 0,
            "source" : 5
        }
    ],
    "images" : [
        {
            "mimeType" : "image/png",
            "name" : "pared_Normal",
            "uri" : "pared_Normal.png"
        },
        {
            "mimeType" : "image/png",
            "name" : "pared_Base_Color",
            "uri" : "pared_Base_Color.png"
        },
        {
            "mimeType" : "image/png",
            "name" : "pared_Metallic-pared_Roughness",
            "uri" : "pared_Metallic-pared_Roughness.png"
        },
        {
            "mimeType" : "image/png",
            "name" : "suelo_Normal",
            "uri" : "suelo_Normal.png"
        },
        {
            "mimeType" : "image/png",
            "name" : "suelo_Base_Color",
            "uri" : "suelo_Base_Color.png"
        },
        {
            "mimeType" : "image/png",
            "name" : "suelo_Metallic-suelo_Roughness",
            "uri" : "suelo_Metallic-suelo_Roughness.png"
        }
    ],
    "accessors" : [
        {
            "bufferView" : 0,
            "componentType" : 5126,
            "count" : 590,
            "max" : [
                0.3939976096153259,
                0.7404802441596985,
                0.6027321815490723
            ],
            "min" : [
                -0.3895989954471588,
                0.015452951192855835,
                -0.4774848520755768
            ],
            "type" : "VEC3"
        },
        {
            "bufferView" : 1,
            "componentType" : 5126,
            "count" : 590,
            "type" : "VEC3"
        },
        {
            "bufferView" : 2,
            "componentType" : 5126,
            "count" : 590,
            "type" : "VEC2"
        },
        {
            "bufferView" : 3,
            "componentType" : 5123,
            "count" : 1164,
            "type" : "SCALAR"
        },
        {
            "bufferView" : 4,
            "componentType" : 5126,
            "count" : 1249,
            "max" : [
                0.3912530243396759,
                0.0219992995262146,
                0.6027321815490723
            ],
            "min" : [
                -0.3866698443889618,
                -0.0070708394050598145,
                -0.4762692451477051
            ],
            "type" : "VEC3"
        },
        {
            "bufferView" : 5,
            "componentType" : 5126,
            "count" : 1249,
            "type" : "VEC3"
        },
        {
            "bufferView" : 6,
            "componentType" : 5126,
            "count" : 1249,
            "type" : "VEC2"
        },
        {
            "bufferView" : 7,
            "componentType" : 5123,
            "count" : 4272,
            "type" : "SCALAR"
        }
    ],
    "bufferViews" : [
        {
            "buffer" : 0,
            "byteLength" : 7080,
            "byteOffset" : 0
        },
        {
            "buffer" : 0,
            "byteLength" : 7080,
            "byteOffset" : 7080
        },
        {
            "buffer" : 0,
            "byteLength" : 4720,
            "byteOffset" : 14160
        },
        {
            "buffer" : 0,
            "byteLength" : 2328,
            "byteOffset" : 18880
        },
        {
            "buffer" : 0,
            "byteLength" : 14988,
            "byteOffset" : 21208
        },
        {
            "buffer" : 0,
            "byteLength" : 14988,
            "byteOffset" : 36196
        },
        {
            "buffer" : 0,
            "byteLength" : 9992,
            "byteOffset" : 51184
        },
        {
            "buffer" : 0,
            "byteLength" : 8544,
            "byteOffset" : 61176
        }
    ],
    "samplers" : [
        {
            "magFilter" : 9729,
            "minFilter" : 9987
        }
    ],
    "buffers" : [
        {
            "byteLength" : 69720,
            "uri" : "floor-wall.bin"
        }
    ]
}
